<svg xmlns="http://www.w3.org/2000/svg" viewBox="0 0 220 252" width="440" height="504">
  <defs>
    <mask id="abdMask2b">
      <ellipse cx="110" cy="175" rx="40" ry="57" fill="white"/>
      <rect x="66" y="130" width="88" height="9.5" fill="black"/>
      <rect x="66" y="146" width="88" height="9.5" fill="black"/>
      <rect x="66" y="162" width="88" height="9.5" fill="black"/>
      <rect x="66" y="178" width="88" height="9.5" fill="black"/>
      <rect x="66" y="194" width="88" height="9.5" fill="black"/>
      <rect x="66" y="210" width="88" height="9.5" fill="black"/>
    </mask>
  </defs>

  <line x1="97"  y1="50" x2="72"  y2="20" stroke="black" stroke-width="4.5" stroke-linecap="round"/>
  <circle cx="69"  cy="20" r="8" fill="black"/>
  <line x1="123" y1="50" x2="148" y2="20" stroke="black" stroke-width="4.5" stroke-linecap="round"/>
  <circle cx="151" cy="20" r="8" fill="black"/>
  <circle cx="110" cy="64" r="22" fill="black"/>
  <circle cx="110" cy="101" r="15" fill="black"/>
  <ellipse cx="56"  cy="98" rx="38" ry="21" fill="black"/>
  <ellipse cx="164" cy="98" rx="38" ry="21" fill="black"/>
  <ellipse cx="110" cy="175" rx="40" ry="57" fill="black" mask="url(#abdMask2b)"/>
</svg>
